<?xml version="1.0" encoding="UTF-8"?>
<svg width="283px" height="70px" viewBox="0 0 283 70" version="1.1" xmlns="http://www.w3.org/2000/svg" xmlns:xlink="http://www.w3.org/1999/xlink">
    <title>fc-horizontal</title>
    <g id="Page-1" stroke="none" stroke-width="1" fill="none" fill-rule="evenodd">
        <g id="fc-horizontal" transform="translate(0.129059, 0.310669)" fill="#ffffff" fill-rule="nonzero">
            <polygon id="Path" points="79.556541 0.049683 88.243441 0.049683 88.243441 28.592331 90.725441 28.592331 90.725441 0.049683 99.412241 0.049683 99.412241 69.644131 90.725441 69.644131 90.725441 36.944131 88.243441 36.944131 88.243441 69.644131 79.556541 69.644131"></polygon>
            <polygon id="Path" points="124.466941 69.681031 115.705941 69.681031 115.705941 8.326941 110.220941 8.326941 110.220941 0.049683 130.076941 0.049683 130.076941 8.302101 124.417941 8.302101"></polygon>
            <polygon id="Path" points="36.236641 69.681031 27.549741 69.681031 27.549741 0.049683 36.236641 0.049683"></polygon>
            <path d="M225.151941,69.479831 L216.614941,69.479831 C216.337941,65.904631 216.056941,62.315631 215.769941,58.712731 L211.044941,58.712731 C210.780941,62.287931 210.531941,65.863031 210.268941,69.465931 L202.120941,69.465931 C204.143941,46.305931 206.157941,23.164331 208.162941,0.04126 L219.178941,0.04126 C221.174941,23.164331 223.164941,46.310631 225.151941,69.479831 Z M215.007941,50.426131 C214.508941,42.181131 214.009941,33.991531 213.510941,25.788031 C212.947941,33.991531 212.369941,42.204231 211.778941,50.426131 L215.007941,50.426131 Z" id="Shape"></path>
            <polygon id="Path" points="268.148941 69.465331 268.148941 8.299531 262.605941 8.299531 262.605941 0.054565 282.476941 0.054565 282.476941 8.257921 276.823941 8.257921 276.823941 69.465331"></polygon>
            <path d="M15.698241,8.301631 L8.960941,8.301631 L8.960941,8.299681 L7.022461,8.299681 L7.022461,8.906131 C7.501991,8.906131 7.906041,9.082231 8.208981,9.435421 C8.499251,9.774031 8.672391,10.136331 8.686521,10.521331 L8.686521,28.629731 L15.649441,28.629731 L15.649441,36.918831 L8.686521,36.918831 L8.686521,69.668831 L-1.24344979e-14,69.668831 L-1.24344979e-14,0.049683 L15.698241,0.049683 L15.698241,8.301631 Z" id="Path"></path>
            <path d="M63.224941,0 C63.509341,0.012089 63.781141,0.12193 63.994441,0.310547 L67.717141,4.033201 C67.888741,4.215551 67.990641,4.453031 68.003241,4.703121 L68.003241,24.149431 C68.065241,24.397631 68.052741,24.546631 68.040341,24.745131 L59.352841,24.745131 L59.352841,8.351561 L56.871441,8.351561 L56.871441,8.352541 L55.203441,8.352541 L55.203441,8.958981 C55.683041,8.958981 56.087041,9.135951 56.389941,9.489261 C56.692841,9.842631 56.870341,10.221231 56.870441,10.625031 L56.870441,11.339831 L56.871441,11.339831 L56.871441,61.391631 L59.278641,61.391631 L59.278641,42.503931 L58.112641,42.503931 L58.112641,34.250931 L68.040341,34.250931 L68.040341,64.880831 C68.033141,65.007131 68.004541,65.131531 67.956341,65.249031 C67.891941,65.405731 67.792641,65.546231 67.667341,65.660131 L63.944641,69.382831 C63.771241,69.541931 63.547041,69.635431 63.311841,69.644531 L52.812841,69.644531 C52.590941,69.636531 52.379041,69.547431 52.217141,69.395531 C50.914241,68.154631 49.611441,66.827031 48.333341,65.511731 C48.211641,65.351531 48.130141,65.164231 48.096941,64.965831 C48.084541,64.883531 48.084541,64.799031 48.096941,64.716831 L48.096941,4.926761 C48.088441,4.743321 48.120941,4.560091 48.191741,4.390621 C48.262541,4.221081 48.370541,4.069191 48.507141,3.946291 C49.748141,2.705311 50.989341,1.463961 52.168241,0.322266 C52.376541,0.131977 52.643641,0.018314 52.925141,0 L63.224941,0 Z" id="Path"></path>
            <path d="M155.971941,0.026733 C156.205941,0.041791 156.427941,0.140291 156.595941,0.304077 C157.897941,1.564891 159.172941,2.839591 160.433941,4.141971 C160.591941,4.295741 160.685941,4.504681 160.696941,4.724971 L160.696941,24.650731 L151.980941,24.650731 L151.980941,8.327511 L147.888941,8.327511 L147.888941,8.933961 C148.368941,8.933961 148.772941,9.110781 149.075941,9.464231 C149.378941,9.817531 149.555941,10.196231 149.555941,10.599931 L149.555941,61.220131 L151.966941,61.220131 L151.966941,44.896831 L160.683941,44.896831 L160.683941,64.656631 C160.696941,64.802831 160.675941,64.950331 160.622941,65.087231 C160.569941,65.224231 160.485941,65.347231 160.377941,65.446631 C159.116941,66.679731 157.870941,67.954531 156.595941,69.201531 C156.411941,69.366231 156.176941,69.464131 155.930941,69.478931 L145.509941,69.478931 C145.274941,69.470131 145.049941,69.382531 144.871941,69.229831 C143.596941,67.968831 142.321941,66.693431 141.074941,65.404631 C140.908941,65.216331 140.810941,64.977131 140.797941,64.725931 L140.797941,4.835331 C140.805941,4.697281 140.836941,4.560941 140.890941,4.432981 C140.962941,4.262381 141.073941,4.110641 141.213941,3.989621 C142.446941,2.770271 143.652941,1.536911 144.885941,0.331421 C145.060941,0.149374 145.298941,0.040565 145.550941,0.026733 L155.971941,0.026733 Z" id="Path"></path>
            <path d="M186.358941,0.013067 C186.527941,0.006626 186.694941,0.036409 186.850941,0.100958 C187.005941,0.165553 187.145941,0.263337 187.259941,0.38709 C188.478941,1.648011 189.739941,2.881051 190.973941,4.141971 C191.125941,4.321521 191.217941,4.544871 191.235941,4.779671 L191.235941,29.210331 C191.225941,29.448331 191.148941,29.678831 191.014941,29.875331 C190.321941,30.859131 189.628941,31.815031 188.866941,32.826531 C189.559941,33.685731 190.252941,34.545131 190.945941,35.432031 C191.122941,35.658731 191.223941,35.935031 191.235941,36.222031 L191.235941,69.451531 L182.520941,69.451531 L182.520941,36.845131 L180.066941,36.845131 L180.066941,69.465231 L171.351941,69.465231 L171.351941,0.013067 L186.358941,0.013067 Z M178.400941,8.327521 L178.400941,8.933961 C178.880941,8.933961 179.285941,9.110781 179.588941,9.464241 C179.886941,9.811931 180.061941,10.183931 180.066941,10.580431 L180.066941,28.531631 L182.437941,28.531631 L182.437941,8.327521 L178.400941,8.327521 Z" id="Shape"></path>
            <path d="M251.776941,8.286011 L245.054941,8.286011 L245.054941,8.285031 L243.115941,8.285031 L243.115941,8.891481 C243.595941,8.891511 243.999941,9.068481 244.302941,9.421751 C244.588941,9.755531 244.760941,10.112231 244.778941,10.491131 L244.778941,28.531131 L251.707941,28.531131 L251.707941,36.845531 L244.778941,36.845531 L244.778941,69.506731 L236.063941,69.506731 L236.063941,0.096558 L251.776941,0.054565 L251.776941,8.286011 Z" id="Path"></path>
        </g>
    </g>
</svg>
