<svg width="60" height="112" viewBox="0 0 60 112" fill="none" xmlns="http://www.w3.org/2000/svg">
<path d="M24.949 13.8112H14.238V13.8073H11.156V14.7712C11.9187 14.7712 12.561 15.052 13.0427 15.614C13.5058 16.1543 13.7809 16.7318 13.8015 17.3464V46.1296H24.8708V59.3083H13.8015V111.376H-0.0090332V0.691101H24.949V13.8112Z" fill="white"/>
<path d="M52.2068 0.69104C52.5792 0.714938 52.9316 0.871027 53.1989 1.13147C55.2698 3.13626 57.2967 5.16313 59.3015 7.23401C59.5529 7.47847 59.7018 7.80958 59.7195 8.15979V39.8405H45.862V13.8873H42.0066V13.8893H39.3571V14.8522C40.1196 14.8523 40.7623 15.1341 41.2439 15.6959C41.7252 16.2577 42.0065 16.8596 42.0066 17.5016V97.9801H45.8405V72.028H59.698V103.444C59.719 103.676 59.6863 103.911 59.6023 104.129C59.5182 104.346 59.3853 104.542 59.2136 104.7C57.2088 106.661 55.2257 108.687 53.1989 110.67C52.9063 110.932 52.5334 111.088 52.1413 111.111H35.5739C35.2011 111.097 34.8436 110.956 34.5603 110.714C32.5336 108.709 30.5067 106.682 28.5241 104.633C28.259 104.334 28.1029 103.953 28.0827 103.553V8.33655C28.095 8.11692 28.1452 7.90047 28.2312 7.6969C28.3458 7.42564 28.5209 7.18425 28.7439 6.99182C30.7046 5.05313 32.621 3.09208 34.5818 1.17542C34.8602 0.885768 35.2392 0.712855 35.6404 0.69104H52.2068Z" fill="white"/>
</svg>
